<svg xmlns="http://www.w3.org/2000/svg" version="1.1" viewBox="-5.0 -10.0 110.0 135.0">
 <path d="m73.566 21.113h-5.3164v-6.9453c0-1.3242-0.57812-2.4961-1.6289-3.3008-1.0508-0.80469-2.332-1.0586-3.6094-0.71875l-41.039 10.996c-0.40625 0.10938-0.71094 0.48047-0.71094 0.92578v66.977c0 0.52734 0.42969 0.95703 0.95703 0.95703h51.348c2.8516 0 5.1719-2.3203 5.1719-5.1719v-58.547c0-2.8516-2.3203-5.1719-5.1719-5.1719zm-10.059-9.1172c0.71094-0.19141 1.3672-0.058594 1.9492 0.38672 0.58594 0.44922 0.87891 1.0469 0.87891 1.7812v6.9453l-36.855 0.003906 34.023-9.1172zm-40.332 11.031h2.668v65.062h-2.668v-65.066zm53.652 61.801c0 1.7969-1.4648 3.2617-3.2617 3.2617h-45.812v-65.066h45.812c1.7969 0 3.2617 1.4648 3.2617 3.2617zm-24.535-25.984c8.3711 0 15.18-6.8086 15.18-15.18 0-8.3711-6.8086-15.18-15.18-15.18-8.3711 0-15.18 6.8086-15.18 15.18 0 8.3711 6.8086 15.18 15.18 15.18zm-6.9102-14.223c0.054688 1.9297 0.26953 3.7852 0.63281 5.4883-1.3086 0.59766-2.5352 1.3828-3.6445 2.3438-1.8789-2.1172-3.0898-4.8398-3.3008-7.832h6.3164zm12.016-11.242c-0.40625-0.95312-0.86328-1.7695-1.3633-2.4414 1.7891 0.52734 3.4219 1.4219 4.8125 2.5938-0.84766 0.71875-1.7695 1.3203-2.7539 1.7969-0.20703-0.6875-0.4375-1.3398-0.69922-1.9492zm-10.902 1.9492c-0.98047-0.47656-1.9023-1.0781-2.7539-1.7969 1.3906-1.1758 3.0234-2.0664 4.8125-2.5938-0.5 0.67188-0.95703 1.4883-1.3633 2.4414-0.25781 0.60938-0.49219 1.2617-0.69922 1.9492zm5.8008-4.7227c1.4648 0 3.0352 2.0508 4.0195 5.4336-1.2852 0.40625-2.6367 0.62109-4.0195 0.62109s-2.7344-0.21484-4.0195-0.62109c0.98438-3.3828 2.5547-5.4336 4.0195-5.4336zm0 7.9688c1.5391 0 3.043-0.23047 4.4727-0.66797 0.28906 1.4414 0.47656 3.0547 0.52344 4.8047h-10c0.050781-1.7461 0.23828-3.3633 0.52344-4.8047 1.4336 0.44141 2.9375 0.66797 4.4727 0.66797zm5 6.0469c-0.050781 1.7461-0.23828 3.3633-0.52344 4.8047-1.4336-0.44141-2.9375-0.66797-4.4727-0.66797-1.5391 0-3.043 0.23047-4.4727 0.66797-0.28906-1.4414-0.47656-3.0547-0.52344-4.8047h10zm-10.102 9.3281c0.40625 0.95312 0.86328 1.7695 1.3633 2.4414-1.7891-0.52734-3.4219-1.4219-4.8125-2.5938 0.84766-0.71875 1.7695-1.3203 2.7539-1.7969 0.20703 0.6875 0.4375 1.3398 0.69922 1.9492zm10.902-1.9492c0.98047 0.47656 1.9023 1.0781 2.7539 1.7969-1.3906 1.1758-3.0234 2.0664-4.8125 2.5938 0.5-0.67188 0.95703-1.4883 1.3633-2.4414 0.25781-0.60938 0.49219-1.2617 0.69922-1.9492zm-5.8008 4.7227c-1.4648 0-3.0352-2.0508-4.0195-5.4336 1.2852-0.40625 2.6367-0.62109 4.0195-0.62109s2.7344 0.21484 4.0195 0.62109c-0.98438 3.3828-2.5547 5.4336-4.0195 5.4336zm9.9258-4.2695c-1.1094-0.96094-2.3359-1.7461-3.6445-2.3438 0.36328-1.7031 0.57812-3.5625 0.63281-5.4883h6.3164c-0.21484 2.9922-1.4258 5.7148-3.3008 7.832zm3.3008-9.7461h-6.3164c-0.054687-1.9297-0.26953-3.7852-0.63281-5.4883 1.3086-0.59766 2.5352-1.3828 3.6445-2.3438 1.8789 2.1172 3.0898 4.8398 3.3008 7.832zm-23.156-7.832c1.1094 0.96094 2.3359 1.7461 3.6445 2.3438-0.36328 1.7031-0.57812 3.5625-0.63281 5.4883h-6.3164c0.21484-2.9922 1.4258-5.7148 3.3008-7.832zm-0.55469 34.656h20.961c0.52734 0 0.95703 0.42969 0.95703 0.95703 0 0.52734-0.42969 0.95703-0.95703 0.95703h-20.961c-0.52734 0-0.95703-0.42969-0.95703-0.95703 0-0.52734 0.42969-0.95703 0.95703-0.95703zm3.1562-3.6328c-0.52734 0-0.95703-0.42969-0.95703-0.95703s0.42969-0.95703 0.95703-0.95703h14.648c0.52734 0 0.95703 0.42969 0.95703 0.95703s-0.42969 0.95703-0.95703 0.95703zm24.02 8.6055h-33.391c-0.52734 0-0.95703 0.42969-0.95703 0.95703v6.2148c0 0.52734 0.42969 0.95703 0.95703 0.95703h33.391c0.52734 0 0.95703-0.42969 0.95703-0.95703v-6.2148c0-0.52734-0.42969-0.95703-0.95703-0.95703zm-0.95703 6.2148h-31.477v-4.3047h31.477z"/>
</svg>