<svg xmlns="http://www.w3.org/2000/svg" version="1.1" viewBox="-5.0 -10.0 110.0 135.0">
 <path d="m89.254 61.445h-1.2266l6.9062-17.586c0.11719-0.30469 0.11328-0.64062-0.015625-0.9375-0.12891-0.29688-0.375-0.53125-0.67578-0.65234l-53.781-21.121c-0.63281-0.24609-1.3438 0.0625-1.5898 0.69141l-2.9297 7.4609-8.2227-2.1172c-0.65625-0.16797-1.3242 0.22656-1.4922 0.88281l-8.5898 33.379h-6.8906c-4.8242 0-8.7461 3.9258-8.7461 8.7461 0 4.8203 3.9219 8.7461 8.7461 8.7461h3.9688 0.003906 0.003906 65.598 0.003907 0.003906 8.9258c4.8242 0 8.7461-3.9258 8.7461-8.7461 0-4.8203-3.9219-8.7461-8.7461-8.7461zm-48.547-37.566 51.5 20.227-12.715 32.379h-59.445zm-12.414 5.9883 6.7422 1.7344-17.625 44.879h-1.1133zm-23.84 40.324c0-3.4688 2.8242-6.293 6.293-6.293h6.2578l-3.2383 12.582h-3.0234c-3.4688 0.003906-6.2891-2.8203-6.2891-6.2891zm84.801 6.293h-7.1328l4.9414-12.582h2.1914c3.4688 0 6.293 2.8242 6.293 6.293 0 3.4648-2.8203 6.2891-6.293 6.2891zm-32.91-9.1094c3.0625 0 5.8438-1.2383 7.8633-3.2422 0.015625-0.015624 0.035157-0.023437 0.046875-0.039062 0.019532-0.019531 0.03125-0.039062 0.046875-0.058594 1.9883-2.0195 3.2188-4.7891 3.2188-7.8398 0-6.1641-5.0156-11.18-11.18-11.18-6.1641 0-11.18 5.0156-11.18 11.18 0.003906 6.168 5.0195 11.18 11.184 11.18zm1.2266-8.2656 4.0273 4.0508c-1.1523 0.87109-2.5312 1.4648-4.0273 1.6758zm7.4961-2.9102c0 1.957-0.64844 3.7656-1.7422 5.2227l-5.7578-5.793v-8.0703c4.2344 0.60156 7.5 4.2461 7.5 8.6406zm-9.9492-8.6367v17.273c-4.2305-0.59766-7.5-4.2422-7.5-8.6367s3.2656-8.0391 7.5-8.6367z"/>
</svg>