<svg width="139" height="140" viewBox="0 0 139 140" fill="none" xmlns="http://www.w3.org/2000/svg">
<path d="M7.36816 84.2275C2.72168 79.5413 0.378581 74.7956 0.338867 69.9902C0.299154 65.1849 2.60254 60.459 7.24902 55.8125L55.3818 7.73926C59.9886 3.09277 64.6947 0.789388 69.5 0.829102C74.3451 0.868815 79.1107 3.21191 83.7969 7.8584L131.632 55.6934C136.278 60.3796 138.621 65.1452 138.661 69.9902C138.701 74.7956 136.397 79.5215 131.751 84.168L83.6777 132.241C79.0312 136.888 74.3053 139.191 69.5 139.151C64.6947 139.112 59.9489 136.769 55.2627 132.122L7.36816 84.2275ZM62.9473 99.5371C64.1387 99.5371 65.2308 99.2591 66.2236 98.7031C67.2562 98.1074 68.1299 97.2933 68.8447 96.2607L96.6641 53.251C97.1009 52.5758 97.4583 51.861 97.7363 51.1064C98.054 50.3519 98.2129 49.5973 98.2129 48.8428C98.2129 47.1748 97.5775 45.8245 96.3066 44.792C95.0755 43.7594 93.6657 43.2432 92.0771 43.2432C89.9723 43.2432 88.2051 44.375 86.7754 46.6387L62.7686 85.002L51.748 71.1816C50.9538 70.1888 50.1595 69.4938 49.3652 69.0967C48.571 68.6598 47.6774 68.4414 46.6846 68.4414C45.0166 68.4414 43.6068 69.0371 42.4551 70.2285C41.3034 71.3802 40.7275 72.79 40.7275 74.458C40.7275 75.2523 40.8665 76.0267 41.1445 76.7812C41.4622 77.4961 41.8991 78.2308 42.4551 78.9854L56.8115 96.2607C57.6852 97.3727 58.6185 98.2067 59.6113 98.7627C60.6042 99.279 61.7161 99.5371 62.9473 99.5371Z" fill="#2563EB"/>
</svg>
