<svg width="15" height="15" viewBox="0 0 15 15" fill="none" xmlns="http://www.w3.org/2000/svg">
<g clip-path="url(#clip0_8732_23377)">
<path d="M7.50218 5.75586H7.5001C6.53705 5.75586 5.75635 6.53656 5.75635 7.49961V7.50169C5.75635 8.46474 6.53705 9.24544 7.5001 9.24544H7.50218C8.46523 9.24544 9.24593 8.46474 9.24593 7.50169V7.49961C9.24593 6.53656 8.46523 5.75586 7.50218 5.75586Z" fill="#64748B"/>
<path d="M4.07917 5.88542C4.07917 4.85 4.91875 4.01042 5.95417 4.01042H9.575L13.5854 0H3.5875L0 3.5875V9.48958H4.07917V5.88333V5.88542Z" fill="#94A3B8"/>
<path d="M10.9208 5.49609V8.97734C10.9208 10.0128 10.0812 10.8523 9.0458 10.8523H5.56455L1.41455 15.0023H11.4125L15 11.4148V5.49818H10.9208V5.49609Z" fill="#94A3B8"/>
</g>
<defs>
<clipPath id="clip0_8732_23377">
<rect width="15" height="15" fill="white"/>
</clipPath>
</defs>
</svg>
