<svg width="22" height="18" viewBox="0 0 22 18" fill="none" xmlns="http://www.w3.org/2000/svg">
<path d="M0 8.88281C0 8.58594 0.121094 8.32422 0.363281 8.09766L8.12109 0.351562C8.24609 0.226562 8.37109 0.136719 8.49609 0.0820312C8.62891 0.0273437 8.76562 0 8.90625 0C9.19531 0 9.4375 0.0976562 9.63281 0.292969C9.83594 0.480469 9.9375 0.71875 9.9375 1.00781C9.9375 1.14844 9.91016 1.28516 9.85547 1.41797C9.80859 1.54297 9.73828 1.65234 9.64453 1.74609L7.01953 4.41797L2.37891 8.66016L2.13281 8.07422L5.90625 7.83984H20.7305C21.0352 7.83984 21.2812 7.9375 21.4688 8.13281C21.6641 8.32812 21.7617 8.57812 21.7617 8.88281C21.7617 9.1875 21.6641 9.4375 21.4688 9.63281C21.2812 9.82812 21.0352 9.92578 20.7305 9.92578H5.90625L2.13281 9.69141L2.37891 9.11719L7.01953 13.3477L9.64453 16.0195C9.73828 16.1133 9.80859 16.2266 9.85547 16.3594C9.91016 16.4844 9.9375 16.6172 9.9375 16.7578C9.9375 17.0469 9.83594 17.2852 9.63281 17.4727C9.4375 17.668 9.19531 17.7656 8.90625 17.7656C8.625 17.7656 8.37109 17.6562 8.14453 17.4375L0.363281 9.66797C0.121094 9.44141 0 9.17969 0 8.88281Z" fill="black"/>
</svg>
