<svg width="22" height="24" viewBox="0 0 22 24" fill="none" xmlns="http://www.w3.org/2000/svg">
<path d="M2.04004 18.7129C1.41699 18.7129 0.919271 18.5446 0.546875 18.208C0.181641 17.8714 -0.000976562 17.4274 -0.000976562 16.876C-0.000976562 16.4678 0.0921224 16.0846 0.27832 15.7266C0.464518 15.3613 0.708008 15.0212 1.00879 14.7061C1.30957 14.3838 1.62826 14.0723 1.96484 13.7715C2.24414 13.5352 2.4554 13.2129 2.59863 12.8047C2.74902 12.3965 2.86361 11.9346 2.94238 11.4189C3.02116 10.9033 3.09993 10.3626 3.17871 9.79688C3.26465 8.57943 3.46875 7.48014 3.79102 6.49902C4.11328 5.51074 4.56803 4.67643 5.15527 3.99609C5.74967 3.30859 6.49089 2.80729 7.37891 2.49219C7.62956 1.76888 8.05208 1.17448 8.64648 0.708984C9.24089 0.236328 9.93555 0 10.7305 0C11.3607 0 11.9193 0.14681 12.4062 0.44043C11.9622 0.905924 11.6077 1.4502 11.3428 2.07324C11.085 2.68913 10.9561 3.34798 10.9561 4.0498C10.9561 5.00944 11.1924 5.8903 11.665 6.69238C12.1449 7.4873 12.7822 8.12467 13.5771 8.60449C14.3792 9.08431 15.2637 9.32422 16.2305 9.32422C16.5885 9.32422 16.9359 9.28841 17.2725 9.2168C17.6162 9.13802 17.9421 9.02702 18.25 8.88379C18.3001 9.20605 18.3431 9.53906 18.3789 9.88281C18.4147 10.2194 18.4469 10.5596 18.4756 10.9033C18.5186 11.2829 18.5794 11.6553 18.6582 12.0205C18.737 12.3857 18.8408 12.7223 18.9697 13.0303C19.1058 13.3382 19.2812 13.5853 19.4961 13.7715C19.8327 14.0723 20.1514 14.3838 20.4521 14.7061C20.7529 15.0212 20.9964 15.3613 21.1826 15.7266C21.376 16.0846 21.4727 16.4678 21.4727 16.876C21.4727 17.4274 21.2865 17.8714 20.9141 18.208C20.5417 18.5446 20.0439 18.7129 19.4209 18.7129H2.04004ZM10.7412 23.3428C10.068 23.3428 9.46289 23.1995 8.92578 22.9131C8.39583 22.6338 7.96973 22.2614 7.64746 21.7959C7.3252 21.3304 7.14258 20.8219 7.09961 20.2705H14.3828C14.3398 20.8219 14.1572 21.3304 13.835 21.7959C13.5127 22.2614 13.083 22.6338 12.5459 22.9131C12.016 23.1995 11.4144 23.3428 10.7412 23.3428ZM16.2412 7.73438C15.568 7.73438 14.9521 7.56608 14.3936 7.22949C13.835 6.8929 13.3874 6.44531 13.0508 5.88672C12.7214 5.32812 12.5566 4.71582 12.5566 4.0498C12.5566 3.37663 12.7214 2.76074 13.0508 2.20215C13.3874 1.64355 13.835 1.19954 14.3936 0.870117C14.9521 0.533529 15.568 0.365234 16.2412 0.365234C16.9072 0.365234 17.5195 0.533529 18.0781 0.870117C18.6367 1.19954 19.0843 1.64355 19.4209 2.20215C19.7575 2.76074 19.9258 3.37663 19.9258 4.0498C19.9258 4.71582 19.7575 5.32812 19.4209 5.88672C19.0843 6.44531 18.6367 6.8929 18.0781 7.22949C17.5195 7.56608 16.9072 7.73438 16.2412 7.73438Z" fill="white"/>
</svg>
