<svg width="34" height="34" viewBox="0 0 34 34" fill="none" xmlns="http://www.w3.org/2000/svg">
<path d="M1.71289 20.2451C0.589844 19.1318 0.0234375 18.0088 0.0136719 16.876C0.00390625 15.7334 0.555664 14.6006 1.66895 13.4775L13.4902 1.6709C14.6035 0.557617 15.7266 0.00585937 16.8594 0.015625C18.002 0.0253906 19.1348 0.591797 20.2578 1.71484L32.0059 13.4629C33.1289 14.5859 33.6904 15.7188 33.6904 16.8613C33.7002 18.0039 33.1484 19.127 32.0352 20.2305L20.2285 32.0518C19.1152 33.1553 17.9873 33.7021 16.8447 33.6924C15.7119 33.6924 14.584 33.1309 13.4609 32.0078L1.71289 20.2451ZM15.2334 24.083C15.5068 24.083 15.7559 24.0195 15.9805 23.8926C16.2148 23.7656 16.4199 23.5752 16.5957 23.3213L23.4512 12.6279C23.5488 12.4717 23.6367 12.3057 23.7148 12.1299C23.793 11.9443 23.832 11.7686 23.832 11.6025C23.832 11.2217 23.6855 10.9141 23.3926 10.6797C23.1094 10.4453 22.7871 10.3281 22.4258 10.3281C21.9473 10.3281 21.5518 10.582 21.2393 11.0898L15.1748 20.7871L12.3623 17.2129C12.167 16.9688 11.9766 16.7979 11.791 16.7002C11.6055 16.6025 11.3955 16.5537 11.1611 16.5537C10.79 16.5537 10.4727 16.6904 10.209 16.9639C9.95508 17.2275 9.82812 17.5449 9.82812 17.916C9.82812 18.1016 9.8623 18.2822 9.93066 18.458C9.99902 18.6338 10.0967 18.8047 10.2236 18.9707L13.8125 23.3359C14.0273 23.5996 14.2471 23.79 14.4717 23.9072C14.6963 24.0244 14.9502 24.083 15.2334 24.083Z" fill="black"/>
</svg>
