<svg xmlns="http://www.w3.org/2000/svg" width="14" height="14" viewBox="0 0 14 14" fill="none">
  <path d="M2.45956 14C1.64971 14 1.03731 13.7925 0.622389 13.3776C0.207463 12.9677 0 12.3628 0 11.5629V2.43706C0 1.63221 0.207463 1.02482 0.622389 0.61489C1.03731 0.204963 1.64971 0 2.45956 0H11.5404C12.3503 0 12.9627 0.204963 13.3776 0.61489C13.7925 1.02482 14 1.63221 14 2.43706V11.5629C14 12.3628 13.7925 12.9677 13.3776 13.3776C12.9627 13.7925 12.3503 14 11.5404 14H2.45956ZM6.1864 10.6856C6.32637 10.6856 6.45385 10.6531 6.56883 10.5881C6.68881 10.5231 6.79379 10.4256 6.88377 10.2957L10.3931 4.82164C10.4431 4.74165 10.4881 4.65667 10.5281 4.56668C10.5681 4.4717 10.5881 4.38172 10.5881 4.29673C10.5881 4.10177 10.5131 3.9443 10.3631 3.82432C10.2182 3.70434 10.0532 3.64435 9.86824 3.64435C9.62328 3.64435 9.42082 3.77433 9.26085 4.03428L6.1564 8.99839L4.71666 7.16872C4.61668 7.04374 4.51919 6.95626 4.42421 6.90627C4.32923 6.85628 4.22175 6.83128 4.10177 6.83128C3.9118 6.83128 3.74933 6.90127 3.61435 7.04124C3.48438 7.17622 3.41939 7.33869 3.41939 7.52866C3.41939 7.62364 3.43689 7.71612 3.47188 7.80611C3.50687 7.89609 3.55686 7.98357 3.62185 8.06856L5.45903 10.3032C5.56901 10.4381 5.68149 10.5356 5.79646 10.5956C5.91144 10.6556 6.04142 10.6856 6.1864 10.6856Z" fill="#94A3B8"/>
</svg>
