<svg width="25" height="24" viewBox="0 0 25 24" fill="none" xmlns="http://www.w3.org/2000/svg">
<path d="M3.79297 18.6377C2.56836 18.6377 1.63021 18.3154 0.978516 17.6709C0.326823 17.0192 0.000976562 16.0846 0.000976562 14.8672V3.77051C0.000976562 2.55306 0.326823 1.62207 0.978516 0.977539C1.63021 0.325846 2.56836 0 3.79297 0H14.8467C16.0641 0 16.9987 0.325846 17.6504 0.977539C18.3021 1.62207 18.6279 2.55306 18.6279 3.77051V6.41309H15.8564V4.11426C15.8564 3.65592 15.7419 3.31934 15.5127 3.10449C15.2907 2.88249 14.9648 2.77148 14.5352 2.77148H4.09375C3.66406 2.77148 3.33464 2.88249 3.10547 3.10449C2.88346 3.31934 2.77246 3.65592 2.77246 4.11426V14.5234C2.77246 14.9818 2.88346 15.3219 3.10547 15.5439C3.33464 15.7588 3.66406 15.8662 4.09375 15.8662H6.92969V18.6377H3.79297ZM9.38965 23.9766C8.15788 23.9766 7.21615 23.6507 6.56445 22.999C5.91276 22.3545 5.58691 21.4235 5.58691 20.2061V9.10938C5.58691 7.89193 5.91276 6.96094 6.56445 6.31641C7.21615 5.66471 8.15788 5.33887 9.38965 5.33887H20.4326C21.6572 5.33887 22.5918 5.66471 23.2363 6.31641C23.888 6.9681 24.2139 7.89909 24.2139 9.10938V20.2061C24.2139 21.4235 23.888 22.3545 23.2363 22.999C22.5918 23.6507 21.6572 23.9766 20.4326 23.9766H9.38965ZM9.69043 21.2051H20.1211C20.5508 21.2051 20.8766 21.0941 21.0986 20.8721C21.3278 20.6572 21.4424 20.3206 21.4424 19.8623V9.45312C21.4424 8.99479 21.3278 8.6582 21.0986 8.44336C20.8766 8.22852 20.5508 8.12109 20.1211 8.12109H9.69043C9.25358 8.12109 8.92057 8.22852 8.69141 8.44336C8.4694 8.6582 8.3584 8.99479 8.3584 9.45312V19.8623C8.3584 20.3206 8.4694 20.6572 8.69141 20.8721C8.92057 21.0941 9.25358 21.2051 9.69043 21.2051Z" fill="white"/>
</svg>
