<svg width="23" height="21" viewBox="0 0 23 21" fill="none" xmlns="http://www.w3.org/2000/svg">
<path d="M11.1826 20.7539C11.0036 20.7539 10.7887 20.6895 10.5381 20.5605C10.2874 20.4316 10.0404 20.2848 9.79688 20.1201C7.82747 18.8311 6.10514 17.474 4.62988 16.0488C3.16178 14.6165 2.02311 13.1449 1.21387 11.6338C0.404622 10.1156 0 8.59017 0 7.05762C0 5.99772 0.168294 5.03809 0.504883 4.17871C0.848633 3.31217 1.31771 2.56738 1.91211 1.94434C2.50651 1.32129 3.19043 0.841471 3.96387 0.504883C4.74447 0.168294 5.5752 0 6.45605 0C7.55176 0 8.49349 0.275716 9.28125 0.827148C10.0762 1.37142 10.71 2.0804 11.1826 2.9541C11.6553 2.0804 12.2855 1.37142 13.0732 0.827148C13.8682 0.275716 14.8135 0 15.9092 0C16.7829 0 17.61 0.168294 18.3906 0.504883C19.1712 0.841471 19.8551 1.32129 20.4424 1.94434C21.0368 2.56738 21.5023 3.31217 21.8389 4.17871C22.1826 5.03809 22.3545 5.99772 22.3545 7.05762C22.3545 8.59017 21.9499 10.1156 21.1406 11.6338C20.3314 13.1449 19.1927 14.6165 17.7246 16.0488C16.2565 17.474 14.5378 18.8311 12.5684 20.1201C12.3249 20.2848 12.0778 20.4316 11.8271 20.5605C11.5765 20.6895 11.3617 20.7539 11.1826 20.7539Z" fill="#DC2626"/>
</svg>
