<svg width="16" height="22" viewBox="0 0 16 22" fill="none" xmlns="http://www.w3.org/2000/svg">
<path d="M2.60938 21.9775C1.75 21.9775 1.09831 21.7484 0.654297 21.29C0.217448 20.8317 -0.000976562 20.137 -0.000976562 19.2061V11.2246C-0.000976562 10.3008 0.217448 9.61328 0.654297 9.16211C1.09831 8.70378 1.75 8.47461 2.60938 8.47461H13.083C13.9424 8.47461 14.5905 8.70378 15.0273 9.16211C15.4714 9.61328 15.6934 10.3008 15.6934 11.2246V19.2061C15.6934 20.137 15.4714 20.8317 15.0273 21.29C14.5905 21.7484 13.9424 21.9775 13.083 21.9775H2.60938ZM2.11523 9.50586V6.03613C2.11523 4.75423 2.37305 3.66569 2.88867 2.77051C3.41146 1.86816 4.10612 1.18066 4.97266 0.708008C5.83919 0.235352 6.79525 -0.000976562 7.84082 -0.000976562C8.89355 -0.000976562 9.85319 0.235352 10.7197 0.708008C11.5863 1.18066 12.2773 1.86816 12.793 2.77051C13.3158 3.66569 13.5771 4.75423 13.5771 6.03613V9.50586H11.0312V5.89648C11.0312 5.17318 10.888 4.55729 10.6016 4.04883C10.3151 3.5332 9.92839 3.13932 9.44141 2.86719C8.96159 2.59505 8.42806 2.45898 7.84082 2.45898C7.25358 2.45898 6.72005 2.59505 6.24023 2.86719C5.76042 3.13932 5.37728 3.5332 5.09082 4.04883C4.81152 4.55729 4.67188 5.17318 4.67188 5.89648V9.50586H2.11523Z" fill="white"/>
</svg>
