<svg width="33" height="31" viewBox="0 0 33 31" fill="none" xmlns="http://www.w3.org/2000/svg">
<path d="M5.63477 30.3789C5.04232 30.3789 4.65495 30.1966 4.47266 29.832C4.29948 29.4766 4.39518 29.0755 4.75977 28.6289C4.95117 28.3828 5.20182 28.0684 5.51172 27.6855C5.83073 27.3027 6.16341 26.8789 6.50977 26.4141C6.85612 25.9583 7.17513 25.4889 7.4668 25.0059C7.53971 24.86 7.55794 24.7324 7.52148 24.623C7.48503 24.5137 7.38477 24.4134 7.2207 24.3223C5.67122 23.4746 4.35872 22.472 3.2832 21.3145C2.20768 20.1569 1.39193 18.8991 0.835938 17.541C0.279948 16.1738 0.00195312 14.752 0.00195312 13.2754C0.00195312 11.4342 0.425781 9.71159 1.27344 8.10742C2.12109 6.49414 3.29232 5.08138 4.78711 3.86914C6.29102 2.6569 8.0319 1.70898 10.0098 1.02539C11.9967 0.341797 14.1296 0 16.4082 0C18.6868 0 20.8151 0.341797 22.793 1.02539C24.7799 1.70898 26.5254 2.6569 28.0293 3.86914C29.5332 5.08138 30.7044 6.49414 31.543 8.10742C32.3906 9.71159 32.8145 11.4342 32.8145 13.2754C32.8145 14.916 32.5182 16.4245 31.9258 17.8008C31.3424 19.1771 30.513 20.4076 29.4375 21.4922C28.362 22.5677 27.0859 23.4837 25.6094 24.2402C24.1419 24.9876 22.5195 25.5573 20.7422 25.9492C18.974 26.3503 17.1009 26.5508 15.123 26.5508C15.0684 26.5508 15.0046 26.5508 14.9316 26.5508C14.8678 26.5508 14.7949 26.5462 14.7129 26.5371C14.5762 26.5371 14.444 26.5553 14.3164 26.5918C14.1979 26.6283 14.0566 26.7012 13.8926 26.8105C13.2181 27.2845 12.4889 27.7357 11.7051 28.1641C10.9303 28.5924 10.1556 28.9707 9.38086 29.2988C8.61523 29.6361 7.9043 29.9004 7.24805 30.0918C6.5918 30.2832 6.05404 30.3789 5.63477 30.3789Z" fill="white"/>
</svg>
