<svg width="25" height="20" viewBox="0 0 25 20" fill="none" xmlns="http://www.w3.org/2000/svg">
<path d="M12.4922 18.1094C11.362 18.1094 10.2995 17.8932 9.30469 17.4609C8.3099 17.0339 7.43229 16.4401 6.67188 15.6797C5.91146 14.9245 5.3151 14.0495 4.88281 13.0547C4.45573 12.0599 4.24219 10.9948 4.24219 9.85938C4.24219 8.72917 4.45573 7.66667 4.88281 6.67188C5.3151 5.67708 5.90885 4.79948 6.66406 4.03906C7.42448 3.27865 8.30208 2.6849 9.29688 2.25781C10.2969 1.82552 11.362 1.60937 12.4922 1.60937C13.6224 1.60937 14.6849 1.82552 15.6797 2.25781C16.6797 2.6849 17.5573 3.27865 18.3125 4.03906C19.0729 4.79948 19.6693 5.67708 20.1016 6.67187C20.5339 7.66667 20.75 8.72917 20.75 9.85937C20.75 10.9948 20.5339 12.0599 20.1016 13.0547C19.6693 14.0495 19.0729 14.9245 18.3125 15.6797C17.5573 16.4401 16.6823 17.0339 15.6875 17.4609C14.6927 17.8932 13.6276 18.1094 12.4922 18.1094ZM12.4922 16.0547C13.3516 16.0547 14.1563 15.8932 14.9063 15.5703C15.6563 15.2526 16.3151 14.8125 16.8828 14.25C17.4505 13.6823 17.8932 13.0234 18.2109 12.2734C18.5339 11.5234 18.6953 10.7187 18.6953 9.85937C18.6953 9 18.5339 8.19792 18.2109 7.45312C17.888 6.70312 17.4427 6.04427 16.875 5.47656C16.3125 4.90885 15.6562 4.46615 14.9062 4.14844C14.1562 3.82552 13.3516 3.66406 12.4922 3.66406C11.6328 3.66406 10.8281 3.82552 10.0781 4.14844C9.33333 4.46615 8.67708 4.90885 8.10938 5.47656C7.54167 6.04427 7.09896 6.70312 6.78125 7.45312C6.46354 8.19792 6.30469 9 6.30469 9.85938C6.30469 10.7188 6.46354 11.5234 6.78125 12.2734C7.09896 13.0234 7.54167 13.6823 8.10938 14.25C8.67708 14.8125 9.33594 15.2526 10.0859 15.5703C10.8359 15.8932 11.638 16.0547 12.4922 16.0547ZM11.125 14.0156C10.9323 14.0156 10.7682 13.9531 10.6328 13.8281C10.4974 13.6979 10.4297 13.5339 10.4297 13.3359C10.4297 13.1432 10.4974 12.9844 10.6328 12.8594C10.7682 12.7292 10.9323 12.6641 11.125 12.6641H11.9844V9.95312H11.2734C11.0755 9.95312 10.9089 9.89062 10.7734 9.76562C10.638 9.64062 10.5703 9.47656 10.5703 9.27344C10.5703 9.08594 10.638 8.92708 10.7734 8.79687C10.9089 8.66667 11.0755 8.60156 11.2734 8.60156H12.75C13 8.60156 13.1901 8.68229 13.3203 8.84375C13.4505 9 13.5156 9.21094 13.5156 9.47656V12.6641H14.2109C14.4089 12.6641 14.5729 12.7292 14.7031 12.8594C14.8385 12.9844 14.9063 13.1432 14.9063 13.3359C14.9063 13.5339 14.8385 13.6979 14.7031 13.8281C14.5729 13.9531 14.4089 14.0156 14.2109 14.0156H11.125ZM12.4844 7.54687C12.1771 7.54687 11.9115 7.4375 11.6875 7.21875C11.4688 6.99479 11.3594 6.73177 11.3594 6.42969C11.3594 6.11198 11.4688 5.84375 11.6875 5.625C11.9115 5.40625 12.1771 5.29687 12.4844 5.29687C12.7969 5.29687 13.0599 5.40625 13.2734 5.625C13.4922 5.84375 13.6016 6.11198 13.6016 6.42969C13.6016 6.73177 13.4922 6.99479 13.2734 7.21875C13.0599 7.4375 12.7969 7.54687 12.4844 7.54687Z" fill="#94A3B8"/>
</svg>
