<svg width="26" height="33" viewBox="0 0 26 33" fill="none" xmlns="http://www.w3.org/2000/svg">
<path d="M4.82812 32.0332C3.26953 32.0332 2.07552 31.623 1.24609 30.8027C0.416667 29.9824 0.00195312 28.793 0.00195312 27.2344V14.1094C0.00195312 12.5599 0.416667 11.375 1.24609 10.5547C2.07552 9.72526 3.26953 9.31055 4.82812 9.31055H8.5332V12.8379H5.21094C4.66406 12.8379 4.24479 12.9792 3.95312 13.2617C3.67057 13.5352 3.5293 13.9635 3.5293 14.5469V26.8105C3.5293 27.3848 3.67057 27.8086 3.95312 28.082C4.24479 28.3646 4.66406 28.5059 5.21094 28.5059H20.2773C20.8242 28.5059 21.2435 28.3646 21.5352 28.082C21.8268 27.8086 21.9727 27.3848 21.9727 26.8105V14.5469C21.9727 13.9635 21.8268 13.5352 21.5352 13.2617C21.2435 12.9792 20.8242 12.8379 20.2773 12.8379H16.9688V9.31055H20.6738C22.2324 9.31055 23.4264 9.72526 24.2559 10.5547C25.0853 11.375 25.5 12.5599 25.5 14.1094V27.2344C25.5 28.7839 25.0853 29.9688 24.2559 30.7891C23.4264 31.6185 22.2324 32.0332 20.6738 32.0332H4.82812ZM12.7441 20.8086C12.3066 20.8086 11.9329 20.6536 11.623 20.3438C11.3223 20.0339 11.1719 19.6647 11.1719 19.2363V5.93359L11.3086 3.92383L10.584 4.99023L8.94336 6.74023C8.66081 7.04102 8.31445 7.19141 7.9043 7.19141C7.53971 7.19141 7.2207 7.06836 6.94727 6.82227C6.67383 6.57617 6.53711 6.26172 6.53711 5.87891C6.53711 5.52344 6.67839 5.19987 6.96094 4.9082L11.5 0.560547C11.7096 0.350911 11.9147 0.205078 12.1152 0.123047C12.3249 0.0410156 12.5345 0 12.7441 0C12.9629 0 13.1725 0.0410156 13.373 0.123047C13.5827 0.205078 13.7923 0.350911 14.002 0.560547L18.541 4.9082C18.8236 5.19987 18.9648 5.52344 18.9648 5.87891C18.9648 6.26172 18.8236 6.57617 18.541 6.82227C18.2676 7.06836 17.9531 7.19141 17.5977 7.19141C17.1875 7.19141 16.8411 7.04102 16.5586 6.74023L14.9043 4.99023L14.1934 3.92383L14.3301 5.93359V19.2363C14.3301 19.6647 14.1751 20.0339 13.8652 20.3438C13.5645 20.6536 13.1908 20.8086 12.7441 20.8086Z" fill="#2563EB"/>
</svg>
