<svg width="15" height="16" viewBox="0 0 15 16" fill="none" xmlns="http://www.w3.org/2000/svg">
<path d="M0.0644531 7.6543C0.0644531 7.34375 0.175781 7.07715 0.398438 6.85449C0.621094 6.63184 0.887695 6.52051 1.19824 6.52051H6.375V1.35254C6.375 1.04199 6.4834 0.775391 6.7002 0.552734C6.91699 0.330078 7.18359 0.21875 7.5 0.21875C7.81055 0.21875 8.07715 0.330078 8.2998 0.552734C8.52246 0.775391 8.63379 1.04199 8.63379 1.35254V6.52051H13.8105C14.1152 6.52051 14.3789 6.63184 14.6016 6.85449C14.8242 7.07715 14.9355 7.34375 14.9355 7.6543C14.9355 7.9707 14.8242 8.24023 14.6016 8.46289C14.3789 8.67969 14.1152 8.78809 13.8105 8.78809H8.63379V13.9648C8.63379 14.2695 8.52246 14.5332 8.2998 14.7559C8.07715 14.9785 7.81055 15.0898 7.5 15.0898C7.18359 15.0898 6.91699 14.9785 6.7002 14.7559C6.4834 14.5332 6.375 14.2695 6.375 13.9648V8.78809H1.19824C0.887695 8.78809 0.621094 8.67969 0.398438 8.46289C0.175781 8.24023 0.0644531 7.9707 0.0644531 7.6543Z" fill="#94A3B8"/>
</svg>
