<svg width="18" height="25" viewBox="0 0 18 25" fill="none" xmlns="http://www.w3.org/2000/svg">
<path d="M8.99023 24.6582C8.2806 24.6582 7.60352 24.4824 6.95898 24.1309C6.32096 23.7858 5.75456 23.3138 5.25977 22.7148C4.76497 22.1159 4.37435 21.4355 4.08789 20.6738C3.80794 19.9186 3.66797 19.1276 3.66797 18.3008C3.66797 18.1055 3.68099 17.9264 3.70703 17.7637C3.73958 17.5944 3.78516 17.4382 3.84375 17.2949C3.73958 17.3275 3.63216 17.36 3.52148 17.3926C3.41732 17.4186 3.3099 17.4447 3.19922 17.4707C2.88021 17.5684 2.66536 17.6986 2.55469 17.8613C2.44401 18.0176 2.41146 18.2422 2.45703 18.5352L3.15039 23.0664C3.20247 23.4049 3.13737 23.6686 2.95508 23.8574C2.7793 24.0462 2.55469 24.1406 2.28125 24.1406C1.98828 24.1406 1.76693 24.056 1.61719 23.8867C1.47396 23.7174 1.38281 23.4896 1.34375 23.2031L0.5625 18.1934C0.458333 17.5423 0.542969 17.0312 0.816406 16.6602C1.08984 16.2891 1.58464 16.0221 2.30078 15.8594L6.74414 14.8438V14.7461C6.55534 14.6549 6.39583 14.5312 6.26562 14.375C6.14193 14.2188 6.04427 14.0462 5.97266 13.8574L2.87695 13.4863C2.18685 13.4017 1.67904 13.1608 1.35352 12.7637C1.02799 12.36 0.865234 11.8132 0.865234 11.123V7.80273C0.865234 7.51628 0.943359 7.29492 1.09961 7.13867C1.26237 6.97591 1.48372 6.89453 1.76367 6.89453C2.05013 6.89453 2.27148 6.97591 2.42773 7.13867C2.58398 7.29492 2.66211 7.51628 2.66211 7.80273V10.752C2.66211 11.1361 2.75977 11.4062 2.95508 11.5625C3.1569 11.7188 3.43359 11.8164 3.78516 11.8555L5.86523 12.1094C5.91732 11.9661 5.98893 11.8327 6.08008 11.709C6.17773 11.5788 6.29492 11.4681 6.43164 11.377V11.2793C5.57227 11.123 4.91471 10.7975 4.45898 10.3027C4.00326 9.80143 3.77539 9.16992 3.77539 8.4082C3.77539 7.82227 3.87305 7.26237 4.06836 6.72852C4.26367 6.18815 4.53385 5.70638 4.87891 5.2832L4.74219 5.18555C4.21484 4.81445 3.90234 4.36849 3.80469 3.84766C3.71354 3.32031 3.83398 2.75391 4.16602 2.14844L4.72266 1.19141C4.92448 0.820312 5.19792 0.634766 5.54297 0.634766C5.77734 0.634766 5.97266 0.709635 6.12891 0.859375C6.28516 1.00911 6.36328 1.19466 6.36328 1.41602C6.36328 1.51367 6.35352 1.60156 6.33398 1.67969C6.31445 1.7513 6.27539 1.84245 6.2168 1.95312L5.74805 2.70508C5.5918 2.95247 5.52344 3.1901 5.54297 3.41797C5.56901 3.63932 5.68294 3.83789 5.88477 4.01367C5.91081 4.0332 5.93685 4.05599 5.96289 4.08203C5.98893 4.10156 6.01497 4.11784 6.04102 4.13086C6.45768 3.83789 6.91667 3.60677 7.41797 3.4375C7.91927 3.26823 8.44336 3.18359 8.99023 3.18359C9.54362 3.18359 10.0742 3.26823 10.582 3.4375C11.0898 3.60677 11.5553 3.83789 11.9785 4.13086C12.0046 4.11784 12.0273 4.10156 12.0469 4.08203C12.0729 4.05599 12.099 4.03646 12.125 4.02344C12.3398 3.84766 12.4538 3.64583 12.4668 3.41797C12.4863 3.1901 12.4212 2.95247 12.2715 2.70508L11.8027 1.95312C11.7441 1.84245 11.7051 1.7513 11.6855 1.67969C11.666 1.60156 11.6562 1.51367 11.6562 1.41602C11.6562 1.19466 11.7344 1.00911 11.8906 0.859375C12.0469 0.709635 12.2422 0.634766 12.4766 0.634766C12.8151 0.634766 13.0885 0.820312 13.2969 1.19141L13.8535 2.14844C14.1921 2.75391 14.3125 3.32031 14.2148 3.84766C14.1172 4.36849 13.8047 4.81445 13.2773 5.18555L13.1309 5.29297C13.4694 5.72266 13.7331 6.20443 13.9219 6.73828C14.1107 7.26562 14.2051 7.82227 14.2051 8.4082C14.2051 9.16992 13.9772 9.80143 13.5215 10.3027C13.0723 10.7975 12.4212 11.123 11.5684 11.2793V11.377C11.6921 11.4681 11.8027 11.5788 11.9004 11.709C11.998 11.8327 12.0762 11.9661 12.1348 12.1094L14.2051 11.8555C14.5566 11.8164 14.8301 11.7188 15.0254 11.5625C15.2272 11.4062 15.3281 11.1361 15.3281 10.752V7.80273C15.3281 7.51628 15.4062 7.29492 15.5625 7.13867C15.7188 6.97591 15.9401 6.89453 16.2266 6.89453C16.513 6.89453 16.7344 6.97591 16.8906 7.13867C17.0469 7.29492 17.125 7.51628 17.125 7.80273V11.123C17.125 11.8132 16.9622 12.36 16.6367 12.7637C16.3177 13.1608 15.8099 13.4017 15.1133 13.4863L12.0176 13.8574C11.946 14.0462 11.8451 14.2188 11.7148 14.375C11.5911 14.5312 11.4382 14.6549 11.2559 14.7461V14.8438L15.6992 15.8594C16.4089 16.0221 16.9004 16.2891 17.1738 16.6602C17.4538 17.0312 17.5417 17.5423 17.4375 18.1934L16.6562 23.2031C16.6107 23.4896 16.513 23.7174 16.3633 23.8867C16.2201 24.056 16.002 24.1406 15.709 24.1406C15.4355 24.1406 15.2077 24.0462 15.0254 23.8574C14.8496 23.6686 14.791 23.4049 14.8496 23.0664L15.5332 18.5352C15.5788 18.2487 15.5495 18.0273 15.4453 17.8711C15.3411 17.7083 15.1263 17.5781 14.8008 17.4805C14.6966 17.4479 14.5892 17.4186 14.4785 17.3926C14.3678 17.36 14.2572 17.3275 14.1465 17.2949C14.2051 17.4382 14.2507 17.5944 14.2832 17.7637C14.3158 17.9264 14.332 18.1055 14.332 18.3008C14.332 19.1276 14.1888 19.9186 13.9023 20.6738C13.6159 21.4355 13.2253 22.1159 12.7305 22.7148C12.2357 23.3138 11.666 23.7858 11.0215 24.1309C10.3835 24.4824 9.70638 24.6582 8.99023 24.6582Z" fill="white"/>
</svg>
