<svg width="21" height="21" viewBox="0 0 21 21" fill="none" xmlns="http://www.w3.org/2000/svg">
<path d="M1.0459 12.3135C0.360352 11.6221 0.0146484 10.9219 0.00878906 10.2129C0.00292969 9.50391 0.342773 8.80664 1.02832 8.12109L8.12988 1.02832C8.80957 0.342773 9.50391 0.00292969 10.2129 0.00878906C10.9277 0.0146484 11.6309 0.360352 12.3223 1.0459L19.3799 8.10352C20.0654 8.79492 20.4111 9.49805 20.417 10.2129C20.4229 10.9219 20.083 11.6191 19.3975 12.3047L12.3047 19.3975C11.6191 20.083 10.9219 20.4229 10.2129 20.417C9.50391 20.4111 8.80371 20.0654 8.1123 19.3799L1.0459 12.3135ZM9.24609 14.5723C9.42188 14.5723 9.58301 14.5312 9.72949 14.4492C9.88184 14.3613 10.0107 14.2412 10.1162 14.0889L14.2207 7.74316C14.2852 7.64355 14.3379 7.53809 14.3789 7.42676C14.4258 7.31543 14.4492 7.2041 14.4492 7.09277C14.4492 6.84668 14.3555 6.64746 14.168 6.49512C13.9863 6.34277 13.7783 6.2666 13.5439 6.2666C13.2334 6.2666 12.9727 6.43359 12.7617 6.76758L9.21973 12.4277L7.59375 10.3887C7.47656 10.2422 7.35938 10.1396 7.24219 10.0811C7.125 10.0166 6.99316 9.98438 6.84668 9.98438C6.60059 9.98438 6.39258 10.0723 6.22266 10.248C6.05273 10.418 5.96777 10.626 5.96777 10.8721C5.96777 10.9893 5.98828 11.1035 6.0293 11.2148C6.07617 11.3203 6.14062 11.4287 6.22266 11.54L8.34082 14.0889C8.46973 14.2529 8.60742 14.376 8.75391 14.458C8.90039 14.5342 9.06445 14.5723 9.24609 14.5723Z" fill="white"/>
</svg>
