<svg width="42" height="40" viewBox="0 0 42 40" fill="none" xmlns="http://www.w3.org/2000/svg">
<path d="M15.0234 39.5469C14.1771 39.5469 13.4479 39.4557 12.8359 39.2734C12.224 39.1042 11.6706 38.8372 11.1758 38.4727C10.694 38.1211 10.2318 37.7044 9.78906 37.2227L2.25 28.8242C1.80729 28.3294 1.46224 27.8672 1.21484 27.4375C0.967448 26.9948 0.791667 26.526 0.6875 26.0312C0.596354 25.5365 0.550781 24.944 0.550781 24.2539V15.543C0.550781 14.8529 0.596354 14.2604 0.6875 13.7656C0.791667 13.2708 0.967448 12.8086 1.21484 12.3789C1.46224 11.9492 1.80729 11.487 2.25 10.9922L9.78906 2.59375C10.2318 2.09896 10.694 1.67578 11.1758 1.32422C11.6706 0.972656 12.224 0.705729 12.8359 0.523438C13.4479 0.341146 14.1771 0.25 15.0234 0.25H26.9766C27.8099 0.25 28.5326 0.341146 29.1445 0.523438C29.7695 0.705729 30.3229 0.972656 30.8047 1.32422C31.2995 1.66276 31.7682 2.08594 32.2109 2.59375L39.6523 10.9922C40.1081 11.513 40.4661 11.9883 40.7266 12.418C40.987 12.8346 41.1693 13.2904 41.2734 13.7852C41.3906 14.2669 41.4492 14.8529 41.4492 15.543V24.2539C41.4492 24.944 41.3971 25.5365 41.293 26.0312C41.2018 26.526 41.0326 26.9948 40.7852 27.4375C40.5378 27.8672 40.1862 28.3294 39.7305 28.8242L32.2109 37.2227C31.7552 37.7044 31.2865 38.1211 30.8047 38.4727C30.3229 38.8372 29.7695 39.1042 29.1445 39.2734C28.5326 39.4557 27.8099 39.5469 26.9766 39.5469H15.0234ZM21.0195 23.2773C22.1784 23.2773 22.7708 22.6719 22.7969 21.4609L23.1094 11.6562C23.1354 11.0573 22.9466 10.569 22.543 10.1914C22.1393 9.80078 21.625 9.60547 21 9.60547C20.362 9.60547 19.8477 9.80078 19.457 10.1914C19.0664 10.569 18.8841 11.0508 18.9102 11.6367L19.1836 21.4805C19.2227 22.6784 19.8346 23.2773 21.0195 23.2773ZM21.0195 29.9961C21.6706 29.9961 22.2305 29.7878 22.6992 29.3711C23.168 28.9544 23.4023 28.4206 23.4023 27.7695C23.4023 27.1315 23.168 26.5977 22.6992 26.168C22.2305 25.7383 21.6706 25.5234 21.0195 25.5234C20.3555 25.5234 19.7891 25.7383 19.3203 26.168C18.8516 26.5977 18.6172 27.1315 18.6172 27.7695C18.6172 28.4206 18.8516 28.9544 19.3203 29.3711C19.8021 29.7878 20.3685 29.9961 21.0195 29.9961Z" fill="currentColor"/>
</svg>
