<svg width="38" height="26" viewBox="0 0 38 26" fill="none" xmlns="http://www.w3.org/2000/svg">
<path d="M29.2539 26.002H9.00977C7.73047 26.002 6.54395 25.7822 5.4502 25.3428C4.36621 24.9131 3.41406 24.3271 2.59375 23.585C1.77344 22.833 1.13379 21.9639 0.674805 20.9775C0.225586 19.9912 0.000976562 18.9414 0.000976562 17.8281C0.000976562 16.6074 0.220703 15.4844 0.660156 14.459C1.09961 13.4238 1.72461 12.5645 2.53516 11.8809C3.3457 11.1973 4.30762 10.7578 5.4209 10.5625C5.45996 9.53711 5.70898 8.60938 6.16797 7.7793C6.62695 6.93945 7.22266 6.24609 7.95508 5.69922C8.69727 5.14258 9.52246 4.77148 10.4307 4.58594C11.3389 4.39063 12.252 4.41992 13.1699 4.67383C13.7852 3.78516 14.5176 2.98926 15.3672 2.28613C16.2168 1.58301 17.1787 1.02637 18.2529 0.616211C19.3369 0.206055 20.5332 0.000976562 21.8418 0.000976562C23.375 0.000976562 24.8008 0.279297 26.1191 0.835938C27.4375 1.39258 28.5898 2.18359 29.5762 3.20898C30.5723 4.23438 31.3438 5.44043 31.8906 6.82715C32.4473 8.21387 32.7256 9.7373 32.7256 11.3975C33.6924 11.7979 34.5273 12.3545 35.2305 13.0674C35.9336 13.7803 36.4707 14.6006 36.8418 15.5283C37.2129 16.4561 37.3984 17.4375 37.3984 18.4727C37.3984 19.5176 37.1885 20.4941 36.7686 21.4023C36.3584 22.3105 35.7822 23.1113 35.04 23.8047C34.2979 24.4883 33.4287 25.0254 32.4326 25.416C31.4463 25.8066 30.3867 26.002 29.2539 26.002ZM17.6377 19.9961C18.1748 19.9961 18.5947 19.7568 18.8975 19.2783L24.6396 10.0498C24.7178 9.92285 24.791 9.78125 24.8594 9.625C24.9375 9.45898 24.9766 9.28809 24.9766 9.1123C24.9766 8.76074 24.8447 8.46777 24.5811 8.2334C24.3174 7.99902 24.0049 7.88184 23.6436 7.88184C23.1553 7.88184 22.7695 8.12109 22.4863 8.59961L17.5791 16.7588L15.0889 13.5654C14.8057 13.165 14.4346 12.9648 13.9756 12.9648C13.624 12.9648 13.3164 13.0918 13.0527 13.3457C12.7988 13.5898 12.6719 13.9023 12.6719 14.2832C12.6719 14.6055 12.7939 14.9229 13.0381 15.2354L16.3193 19.3076C16.5049 19.542 16.7051 19.7178 16.9199 19.835C17.1348 19.9424 17.374 19.9961 17.6377 19.9961Z" fill="black"/>
</svg>
