<svg width="26" height="26" viewBox="0 0 26 26" fill="none" xmlns="http://www.w3.org/2000/svg">
<path d="M11.3555 25.0547C10.9023 25.0547 10.5117 24.9258 10.1836 24.668C9.86328 24.418 9.65234 24.0742 9.55078 23.6367L9.03516 21.4453L8.66016 21.3164L6.76172 22.4883C6.37891 22.7305 5.98047 22.8242 5.56641 22.7695C5.15234 22.7148 4.78516 22.5273 4.46484 22.207L2.83594 20.5781C2.50781 20.2578 2.31641 19.8906 2.26172 19.4766C2.21484 19.0625 2.3125 18.668 2.55469 18.293L3.73828 16.3945L3.60938 16.043L1.41797 15.5273C0.988281 15.4258 0.644531 15.2109 0.386719 14.8828C0.128906 14.5547 0 14.168 0 13.7227V11.4023C0 10.957 0.125 10.5703 0.375 10.2422C0.632812 9.91406 0.980469 9.69922 1.41797 9.59766L3.58594 9.07031L3.72656 8.69531L2.54297 6.79688C2.30078 6.42188 2.20312 6.03125 2.25 5.625C2.30469 5.21094 2.49609 4.83984 2.82422 4.51172L4.45312 2.87109C4.77344 2.55859 5.13672 2.375 5.54297 2.32031C5.95703 2.26562 6.35547 2.35547 6.73828 2.58984L8.63672 3.76172L9.03516 3.60938L9.55078 1.41797C9.65234 0.988281 9.86328 0.644531 10.1836 0.386719C10.5117 0.128906 10.9023 0 11.3555 0H13.7227C14.1758 0 14.5625 0.128906 14.8828 0.386719C15.2109 0.644531 15.4258 0.988281 15.5273 1.41797L16.0312 3.60938L16.4297 3.76172L18.3398 2.58984C18.7148 2.35547 19.1094 2.26562 19.5234 2.32031C19.9375 2.375 20.3008 2.55859 20.6133 2.87109L22.2539 4.51172C22.5742 4.83984 22.7617 5.21094 22.8164 5.625C22.8711 6.03125 22.7773 6.42188 22.5352 6.79688L21.3398 8.69531L21.4922 9.07031L23.6602 9.59766C24.0898 9.69922 24.4336 9.91406 24.6914 10.2422C24.9492 10.5703 25.0781 10.957 25.0781 11.4023V13.7227C25.0781 14.168 24.9492 14.5547 24.6914 14.8828C24.4336 15.2109 24.0898 15.4258 23.6602 15.5273L21.4688 16.043L21.3281 16.3945L22.5234 18.293C22.7656 18.668 22.8594 19.0625 22.8047 19.4766C22.75 19.8906 22.5625 20.2578 22.2422 20.5781L20.6016 22.207C20.2812 22.5273 19.9141 22.7148 19.5 22.7695C19.0859 22.8242 18.6914 22.7305 18.3164 22.4883L16.4062 21.3164L16.0312 21.4453L15.5273 23.6367C15.4258 24.0742 15.2109 24.418 14.8828 24.668C14.5625 24.9258 14.1758 25.0547 13.7227 25.0547H11.3555ZM11.543 23.2266H13.5352C13.7305 23.2266 13.8398 23.1367 13.8633 22.957L14.5781 20.0508C14.9375 19.9648 15.2773 19.8555 15.5977 19.7227C15.918 19.582 16.2031 19.4336 16.4531 19.2773L19.0078 20.8477C19.1562 20.9492 19.3047 20.9297 19.4531 20.7891L20.8242 19.4062C20.957 19.2891 20.9727 19.1445 20.8711 18.9727L19.3008 16.4414C19.4414 16.1914 19.5781 15.9062 19.7109 15.5859C19.8516 15.2656 19.9688 14.9258 20.0625 14.5664L22.9805 13.875C23.1602 13.8438 23.25 13.7305 23.25 13.5352V11.5781C23.25 11.3906 23.1602 11.2773 22.9805 11.2383L20.0742 10.5352C19.9805 10.1523 19.8594 9.79688 19.7109 9.46875C19.5625 9.14062 19.4336 8.86719 19.3242 8.64844L20.8828 6.11719C20.9922 5.94531 20.9805 5.79297 20.8477 5.66016L19.4648 4.30078C19.3242 4.17578 19.1719 4.15625 19.0078 4.24219L16.4648 5.78906C16.207 5.64844 15.918 5.51172 15.5977 5.37891C15.2852 5.23828 14.9453 5.12109 14.5781 5.02734L13.8633 2.09766C13.8398 1.91797 13.7305 1.82812 13.5352 1.82812H11.543C11.3477 1.82812 11.2344 1.91797 11.2031 2.09766L10.5117 5.00391C10.1602 5.09766 9.8125 5.21484 9.46875 5.35547C9.13281 5.49609 8.83984 5.63672 8.58984 5.77734L6.05859 4.24219C5.90234 4.15625 5.75391 4.17578 5.61328 4.30078L4.21875 5.66016C4.09375 5.79297 4.08203 5.94531 4.18359 6.11719L5.74219 8.64844C5.64062 8.86719 5.51172 9.14062 5.35547 9.46875C5.20703 9.79688 5.08594 10.1523 4.99219 10.5352L2.09766 11.2383C1.91797 11.2773 1.82812 11.3906 1.82812 11.5781V13.5352C1.82812 13.7305 1.91797 13.8438 2.09766 13.875L5.00391 14.5664C5.09766 14.9258 5.21484 15.2656 5.35547 15.5859C5.49609 15.9062 5.63281 16.1914 5.76562 16.4414L4.19531 18.9727C4.10156 19.1445 4.11719 19.2891 4.24219 19.4062L5.625 20.7891C5.77344 20.9297 5.91797 20.9492 6.05859 20.8477L8.61328 19.2773C8.86328 19.4336 9.14844 19.582 9.46875 19.7227C9.79688 19.8555 10.1406 19.9648 10.5 20.0508L11.2031 22.957C11.2344 23.1367 11.3477 23.2266 11.543 23.2266ZM12.5391 17.0039C11.7188 17.0039 10.9688 16.8008 10.2891 16.3945C9.61719 15.9883 9.07812 15.4492 8.67188 14.7773C8.26562 14.0977 8.0625 13.3477 8.0625 12.5273C8.0625 11.7148 8.26562 10.9727 8.67188 10.3008C9.07812 9.62109 9.61719 9.08203 10.2891 8.68359C10.9688 8.27734 11.7188 8.07422 12.5391 8.07422C13.3594 8.07422 14.1055 8.27734 14.7773 8.68359C15.457 9.08203 15.9961 9.62109 16.3945 10.3008C16.8008 10.9727 17.0039 11.7148 17.0039 12.5273C17.0039 13.3477 16.8008 14.0977 16.3945 14.7773C15.9961 15.457 15.457 16 14.7773 16.4062C14.1055 16.8047 13.3594 17.0039 12.5391 17.0039ZM12.5391 15.1875C13.0156 15.1875 13.4531 15.0664 13.8516 14.8242C14.25 14.582 14.5664 14.2617 14.8008 13.8633C15.043 13.457 15.1641 13.0117 15.1641 12.5273C15.1641 12.043 15.043 11.6016 14.8008 11.2031C14.5664 10.8047 14.25 10.4883 13.8516 10.2539C13.4531 10.0117 13.0156 9.89062 12.5391 9.89062C12.0547 9.89062 11.6094 10.0117 11.2031 10.2539C10.8047 10.4883 10.4844 10.8047 10.2422 11.2031C10.0078 11.6016 9.89062 12.043 9.89062 12.5273C9.89062 13.0195 10.0078 13.4688 10.2422 13.875C10.4844 14.2734 10.8047 14.5938 11.2031 14.8359C11.6094 15.0703 12.0547 15.1875 12.5391 15.1875Z" fill="black"/>
</svg>
