<svg width="28" height="23" viewBox="0 0 28 23" fill="none" xmlns="http://www.w3.org/2000/svg">
<path d="M16.9648 7.25391H22.9414C23.1602 7.25391 23.3438 7.17969 23.4922 7.03125C23.6484 6.875 23.7266 6.6875 23.7266 6.46875C23.7266 6.25 23.6484 6.06641 23.4922 5.91797C23.3438 5.76953 23.1602 5.69531 22.9414 5.69531H16.9648C16.7305 5.69531 16.5391 5.76953 16.3906 5.91797C16.2422 6.06641 16.168 6.25 16.168 6.46875C16.168 6.6875 16.2422 6.875 16.3906 7.03125C16.5391 7.17969 16.7305 7.25391 16.9648 7.25391ZM16.9648 11.8477H22.9414C23.1602 11.8477 23.3438 11.7734 23.4922 11.625C23.6484 11.4688 23.7266 11.2773 23.7266 11.0508C23.7266 10.832 23.6484 10.6484 23.4922 10.5C23.3438 10.3516 23.1602 10.2773 22.9414 10.2773H16.9648C16.7305 10.2773 16.5391 10.3516 16.3906 10.5C16.2422 10.6484 16.168 10.832 16.168 11.0508C16.168 11.2773 16.2422 11.4688 16.3906 11.625C16.5391 11.7734 16.7305 11.8477 16.9648 11.8477ZM16.9648 16.418H22.9414C23.1602 16.418 23.3438 16.3438 23.4922 16.1953C23.6484 16.0469 23.7266 15.8633 23.7266 15.6445C23.7266 15.4258 23.6484 15.2383 23.4922 15.082C23.3438 14.9258 23.1602 14.8477 22.9414 14.8477H16.9648C16.7305 14.8477 16.5391 14.9258 16.3906 15.082C16.2422 15.2383 16.168 15.4258 16.168 15.6445C16.168 15.8633 16.2422 16.0469 16.3906 16.1953C16.5391 16.3438 16.7305 16.418 16.9648 16.418ZM4.84766 16.4766H13.6719C13.8984 16.4766 14.0703 16.4062 14.1875 16.2656C14.3125 16.1172 14.375 15.9375 14.375 15.7266C14.375 15.4453 14.2734 15.0898 14.0703 14.6602C13.8672 14.2305 13.5547 13.7969 13.1328 13.3594C12.7188 12.9219 12.1875 12.5586 11.5391 12.2695C10.8984 11.9727 10.1367 11.8242 9.25391 11.8242C8.37891 11.8242 7.62109 11.9727 6.98047 12.2695C6.33984 12.5586 5.80859 12.9219 5.38672 13.3594C4.96484 13.7969 4.65234 14.2305 4.44922 14.6602C4.24609 15.0898 4.14453 15.4453 4.14453 15.7266C4.14453 15.9375 4.20312 16.1172 4.32031 16.2656C4.44531 16.4062 4.62109 16.4766 4.84766 16.4766ZM9.25391 11.0391C9.96484 11.0391 10.5703 10.7734 11.0703 10.2422C11.5781 9.71094 11.832 9.04297 11.832 8.23828C11.832 7.73828 11.7148 7.28125 11.4805 6.86719C11.2461 6.44531 10.9336 6.10938 10.543 5.85938C10.1602 5.60938 9.73047 5.48438 9.25391 5.48438C8.78516 5.48438 8.35547 5.60938 7.96484 5.85938C7.57422 6.10938 7.26172 6.44531 7.02734 6.86719C6.80078 7.28125 6.6875 7.73828 6.6875 8.23828C6.6875 9.04297 6.9375 9.71094 7.4375 10.2422C7.94531 10.7734 8.55078 11.0391 9.25391 11.0391ZM4.05078 22.1016C2.75391 22.1016 1.76562 21.7656 1.08594 21.0938C0.414062 20.4219 0.078125 19.4492 0.078125 18.1758V3.9375C0.078125 2.64844 0.414062 1.67188 1.08594 1.00781C1.76562 0.335938 2.75391 0 4.05078 0H23.9609C25.2578 0 26.2422 0.335938 26.9141 1.00781C27.5859 1.67969 27.9219 2.65625 27.9219 3.9375V18.1758C27.9219 19.4492 27.5859 20.4219 26.9141 21.0938C26.2422 21.7656 25.2578 22.1016 23.9609 22.1016H4.05078Z" fill="white"/>
</svg>
