<svg width="24" height="24" viewBox="0 0 24 24" fill="none" xmlns="http://www.w3.org/2000/svg">
<path d="M11.9531 23.9062C10.3203 23.9062 8.78125 23.5938 7.33594 22.9688C5.89844 22.3438 4.62891 21.4805 3.52734 20.3789C2.42578 19.2773 1.5625 18.0078 0.9375 16.5703C0.3125 15.125 0 13.5859 0 11.9531C0 10.3203 0.3125 8.78516 0.9375 7.34766C1.5625 5.90234 2.42188 4.62891 3.51562 3.52734C4.61719 2.42578 5.88672 1.5625 7.32422 0.9375C8.76953 0.3125 10.3086 0 11.9414 0C13.5742 0 15.1133 0.3125 16.5586 0.9375C18.0039 1.5625 19.2773 2.42578 20.3789 3.52734C21.4805 4.62891 22.3438 5.90234 22.9688 7.34766C23.5938 8.78516 23.9062 10.3203 23.9062 11.9531C23.9062 13.5859 23.5938 15.125 22.9688 16.5703C22.3438 18.0078 21.4805 19.2773 20.3789 20.3789C19.2773 21.4805 18.0039 22.3438 16.5586 22.9688C15.1211 23.5938 13.5859 23.9062 11.9531 23.9062ZM6.23438 11.9648C6.23438 12.2617 6.33203 12.5039 6.52734 12.6914C6.72266 12.8711 6.97266 12.9609 7.27734 12.9609H10.9453V16.6406C10.9453 16.9453 11.0352 17.1953 11.2148 17.3906C11.4023 17.5781 11.6445 17.6719 11.9414 17.6719C12.2461 17.6719 12.4922 17.5781 12.6797 17.3906C12.875 17.1953 12.9727 16.9453 12.9727 16.6406V12.9609H16.6523C16.9492 12.9609 17.1953 12.8711 17.3906 12.6914C17.5859 12.5039 17.6836 12.2617 17.6836 11.9648C17.6836 11.6602 17.5859 11.4141 17.3906 11.2266C17.2031 11.0312 16.957 10.9336 16.6523 10.9336H12.9727V7.26562C12.9727 6.96094 12.875 6.71094 12.6797 6.51562C12.4922 6.32031 12.2461 6.22266 11.9414 6.22266C11.6445 6.22266 11.4023 6.32031 11.2148 6.51562C11.0352 6.71094 10.9453 6.96094 10.9453 7.26562V10.9336H7.27734C6.97266 10.9336 6.72266 11.0312 6.52734 11.2266C6.33203 11.4141 6.23438 11.6602 6.23438 11.9648Z" fill="black"/>
</svg>
