<svg width="35" height="31" viewBox="0 0 35 31" fill="none" xmlns="http://www.w3.org/2000/svg">
<path d="M8.04297 27.3174C6.70508 27.3174 5.51367 27.2051 4.46875 26.9805C3.43359 26.7559 2.54004 26.2676 1.78809 25.5156C1.02637 24.7734 0.538086 23.8848 0.323242 22.8496C0.108398 21.8047 0.000976562 20.6133 0.000976562 19.2754V8.01074C0.000976562 6.68262 0.108398 5.50098 0.323242 4.46582C0.547852 3.43066 1.03613 2.54199 1.78809 1.7998C2.54004 1.03809 3.43359 0.549805 4.46875 0.334961C5.51367 0.110352 6.69531 -0.00195312 8.01367 -0.00195312H19.2783C20.6064 -0.00195312 21.793 0.110352 22.8379 0.334961C23.8828 0.549805 24.7861 1.03809 25.5479 1.7998C26.29 2.54199 26.7686 3.43555 26.9834 4.48047C27.208 5.51563 27.3203 6.70215 27.3203 8.04004V12.8594C26.002 12.8594 24.7617 13.1133 23.5996 13.6211C22.4473 14.1191 21.4268 14.8125 20.5381 15.7012C19.6494 16.5801 18.9561 17.6006 18.458 18.7627C17.96 19.915 17.7109 21.1553 17.7109 22.4834C17.7109 23.3623 17.8232 24.207 18.0479 25.0176C18.2822 25.8379 18.6094 26.6045 19.0293 27.3174H8.04297ZM27.335 30.0273C26.2998 30.0273 25.3281 29.832 24.4199 29.4414C23.5117 29.0508 22.7109 28.5039 22.0176 27.8008C21.3242 27.1074 20.7773 26.3066 20.377 25.3984C19.9863 24.4902 19.791 23.5186 19.791 22.4834C19.791 21.4482 19.9863 20.4766 20.377 19.5684C20.7773 18.6602 21.3242 17.8594 22.0176 17.166C22.7109 16.4629 23.5117 15.916 24.4199 15.5254C25.3281 15.1348 26.2998 14.9395 27.335 14.9395C28.3701 14.9395 29.3418 15.1348 30.25 15.5254C31.1582 15.916 31.959 16.458 32.6523 17.1514C33.3457 17.8447 33.8877 18.6504 34.2783 19.5684C34.6787 20.4766 34.8789 21.4482 34.8789 22.4834C34.8789 23.5088 34.6787 24.4756 34.2783 25.3838C33.8877 26.3018 33.3408 27.1074 32.6377 27.8008C31.9443 28.4941 31.1387 29.0361 30.2207 29.4268C29.3125 29.8271 28.3506 30.0273 27.335 30.0273ZM26.4854 26.5703C26.8662 26.5703 27.1494 26.4385 27.335 26.1748L31.583 20.3447C31.6611 20.2373 31.7148 20.1299 31.7441 20.0225C31.7832 19.915 31.8027 19.8174 31.8027 19.7295C31.8027 19.4365 31.6953 19.1924 31.4805 18.9971C31.2754 18.792 31.0312 18.6895 30.748 18.6895C30.3867 18.6895 30.0938 18.8457 29.8691 19.1582L26.4121 23.9336L24.7129 22.0732C24.625 21.9756 24.5127 21.8975 24.376 21.8389C24.249 21.7803 24.1025 21.751 23.9365 21.751C23.6533 21.751 23.4092 21.8486 23.2041 22.0439C22.999 22.2295 22.8965 22.4785 22.8965 22.791C22.8965 22.918 22.9209 23.0498 22.9697 23.1865C23.0186 23.3135 23.0869 23.4355 23.1748 23.5527L25.6504 26.2188C25.748 26.3359 25.875 26.4238 26.0312 26.4824C26.1875 26.541 26.3389 26.5703 26.4854 26.5703Z" fill="black"/>
</svg>
