<svg width="25" height="24" viewBox="0 0 25 24" fill="none" xmlns="http://www.w3.org/2000/svg">
<path d="M4.85547 23.3975C4.55469 23.1683 4.37207 22.8675 4.30762 22.4951C4.24316 22.1227 4.29329 21.6966 4.45801 21.2168L6.5957 14.8574L1.13867 10.9365C0.723307 10.6429 0.429688 10.3278 0.257812 9.99121C0.0859375 9.64746 0.0644531 9.29297 0.193359 8.92773C0.315104 8.56966 0.54069 8.30469 0.870117 8.13281C1.20671 7.95378 1.62565 7.86784 2.12695 7.875L8.83008 7.92871L10.8711 1.52637C11.0286 1.03223 11.2399 0.65625 11.5049 0.398438C11.777 0.133464 12.1029 0.000976562 12.4824 0.000976562C12.862 0.000976562 13.1842 0.133464 13.4492 0.398438C13.7214 0.65625 13.9362 1.03223 14.0938 1.52637L16.124 7.92871L22.8271 7.875C23.3356 7.86784 23.7546 7.95378 24.084 8.13281C24.4206 8.30469 24.6497 8.57324 24.7715 8.93848C24.8932 9.30371 24.8682 9.65462 24.6963 9.99121C24.5316 10.3278 24.2415 10.6429 23.8262 10.9365L18.3584 14.8574L20.5068 21.2168C20.6715 21.6966 20.7217 22.1227 20.6572 22.4951C20.5928 22.8675 20.4066 23.1683 20.0986 23.3975C19.7907 23.6338 19.4505 23.7197 19.0781 23.6553C18.7057 23.598 18.3118 23.4189 17.8965 23.1182L12.4824 19.1328L7.05762 23.1182C6.64941 23.4189 6.25553 23.598 5.87598 23.6553C5.50358 23.7197 5.16341 23.6338 4.85547 23.3975Z" fill="black"/>
</svg>
