<svg width="33" height="31" viewBox="0 0 33 31" fill="none" xmlns="http://www.w3.org/2000/svg">
<path d="M6.67383 30.5293C6.00846 30.5293 5.47982 30.3516 5.08789 29.9961C4.69596 29.6497 4.47721 29.2168 4.43164 28.6973C4.38607 28.1777 4.54557 27.6719 4.91016 27.1797C5.10156 26.9245 5.31576 26.6146 5.55273 26.25C5.79883 25.8854 6.03581 25.5117 6.26367 25.1289C6.50065 24.737 6.71029 24.3815 6.89258 24.0625C5.48893 23.3151 4.27214 22.3854 3.24219 21.2734C2.21224 20.1615 1.41471 18.9264 0.849609 17.5684C0.284505 16.2012 0.00195312 14.7702 0.00195312 13.2754C0.00195312 11.4342 0.425781 9.71159 1.27344 8.10742C2.12109 6.49414 3.29232 5.08138 4.78711 3.86914C6.29102 2.6569 8.0319 1.70898 10.0098 1.02539C11.9967 0.341797 14.1296 0 16.4082 0C18.6868 0 20.8151 0.341797 22.793 1.02539C24.7799 1.70898 26.5254 2.6569 28.0293 3.86914C29.5332 5.08138 30.7044 6.49414 31.543 8.10742C32.3906 9.71159 32.8145 11.4342 32.8145 13.2754C32.8145 14.7793 32.5365 16.2012 31.9805 17.541C31.4245 18.8809 30.6361 20.1022 29.6152 21.2051C28.5944 22.2988 27.373 23.2467 25.9512 24.0488C24.5384 24.8418 22.9661 25.4525 21.2344 25.8809C19.5026 26.3092 17.6478 26.5189 15.6699 26.5098C14.6491 27.248 13.569 27.918 12.4297 28.5195C11.2904 29.1302 10.2103 29.6178 9.18945 29.9824C8.16862 30.347 7.33008 30.5293 6.67383 30.5293ZM8.65625 26.8789C9.03906 26.7148 9.54036 26.446 10.1602 26.0723C10.7891 25.7077 11.4362 25.3021 12.1016 24.8555C12.7669 24.3997 13.3639 23.9714 13.8926 23.5703C14.1842 23.3333 14.4531 23.1693 14.6992 23.0781C14.9453 22.987 15.2188 22.9414 15.5195 22.9414C15.7018 22.9414 15.8659 22.946 16.0117 22.9551C16.1667 22.9551 16.2988 22.9551 16.4082 22.9551C18.1855 22.9551 19.849 22.7044 21.3984 22.2031C22.9479 21.6927 24.306 20.9954 25.4727 20.1113C26.6484 19.2272 27.5645 18.2018 28.2207 17.0352C28.8861 15.8594 29.2188 14.6061 29.2188 13.2754C29.2188 11.9355 28.8861 10.6823 28.2207 9.51562C27.5645 8.34896 26.6484 7.32357 25.4727 6.43945C24.306 5.54622 22.9479 4.84896 21.3984 4.34766C19.849 3.83724 18.1855 3.58203 16.4082 3.58203C14.6309 3.58203 12.9674 3.83724 11.418 4.34766C9.86849 4.84896 8.50586 5.54622 7.33008 6.43945C6.16341 7.32357 5.2474 8.34896 4.58203 9.51562C3.92578 10.6823 3.59766 11.9355 3.59766 13.2754C3.59766 14.4147 3.84831 15.5039 4.34961 16.543C4.85091 17.5729 5.57096 18.5208 6.50977 19.3867C7.45768 20.2435 8.59701 20.9863 9.92773 21.6152C10.3652 21.834 10.6387 22.1165 10.748 22.4629C10.8665 22.8001 10.8118 23.1829 10.584 23.6113C10.3014 24.1217 9.95052 24.6595 9.53125 25.2246C9.11198 25.7897 8.75651 26.2546 8.46484 26.6191C8.3737 26.7376 8.34635 26.8197 8.38281 26.8652C8.42839 26.9199 8.51953 26.9245 8.65625 26.8789Z" fill="white"/>
</svg>
