<svg width="120" height="120" viewBox="0 0 120 120" fill="none" xmlns="http://www.w3.org/2000/svg">
<g clip-path="url(#clip0_2_85)">
<rect width="120" height="120" rx="24" fill="#07955F"/>
<path fill-rule="evenodd" clip-rule="evenodd" d="M120 22.7491C116.162 26.5897 110.858 28.9655 104.999 28.9655C93.2871 28.9655 83.7925 19.4708 83.7925 7.7586C83.7925 5.02017 84.3115 2.40296 85.2566 0L120 0V22.7491ZM120 65.6301C114.424 63.9858 108.522 63.1035 102.414 63.1035C69.8758 63.1035 43.1856 88.1404 40.5572 120H59.2701C61.8273 98.4424 80.1682 81.7242 102.414 81.7242C108.673 81.7242 114.623 83.0478 120 85.4305V65.6301ZM0 84.3565C16.5061 76.5835 27.9309 59.7984 27.9309 40.3448C27.9309 23.5442 19.4097 8.73388 6.45333 0L0 0V84.3565Z" fill="#10A46B"/>
<path fill-rule="evenodd" clip-rule="evenodd" d="M41.8247 27.8871C42.4902 27.6823 42.8989 27.558 43.1969 27.4953C43.2163 27.4913 43.2343 27.4877 43.2509 27.4845C43.2478 27.5011 43.2442 27.519 43.2401 27.5383C43.1774 27.8364 43.053 28.2452 42.8482 28.9108L37.2642 47.0589C37.006 47.8981 36.8383 48.4388 36.6873 48.8102C36.6752 48.8398 36.6638 48.8669 36.6531 48.8915C36.6385 48.8689 36.6227 48.844 36.6059 48.8166C36.3958 48.4752 36.1414 47.9694 35.7488 47.1843L32.3263 40.3394L38.351 34.3147C38.8841 33.7816 38.8841 32.9173 38.351 32.3842C37.8179 31.8511 36.9536 31.8511 36.4205 32.3842L30.3958 38.4089L23.551 34.9865C22.7656 34.5938 22.2599 34.3395 21.9183 34.1295C21.891 34.1127 21.8661 34.097 21.8436 34.0824C21.8683 34.0716 21.8954 34.0602 21.9252 34.0481C22.2966 33.8971 22.8373 33.7294 23.6766 33.4712L41.8247 27.8871ZM44.244 24.8692C43.6546 24.6528 43.0701 24.7322 42.6352 24.8236C42.1998 24.9151 41.6697 25.0783 41.0793 25.26L22.8737 30.8617L22.8127 30.8805C22.0509 31.1148 21.3932 31.3172 20.8969 31.519C20.4339 31.7072 19.7911 32.0113 19.4073 32.6256C18.9396 33.3741 18.8623 34.3029 19.2008 35.1187C19.4784 35.7878 20.0625 36.1934 20.4883 36.4552C20.9445 36.7357 21.5598 37.0433 22.2724 37.3996L29.4037 40.9652C29.5336 41.0302 29.5976 41.0624 29.6436 41.0876L29.646 41.0889L29.6481 41.0926C29.6731 41.1382 29.7053 41.2022 29.77 41.3316L33.3324 48.4564L33.3325 48.4564C33.6902 49.172 33.999 49.7896 34.2806 50.2473C34.5427 50.6732 34.9484 51.2569 35.6172 51.5344C36.4327 51.8728 37.3611 51.7959 38.1098 51.3281C38.724 50.9443 39.0281 50.3015 39.2164 49.8385C39.4182 49.3422 39.6205 48.6845 39.8549 47.9227L39.8549 47.9227L45.4758 29.6548L45.4758 29.6547C45.6573 29.0649 45.8203 28.5353 45.9118 28.1003C46.0033 27.6655 46.0828 27.0808 45.8664 26.4912C45.5899 25.7381 44.9961 25.1453 44.244 24.8692ZM49.7873 38.2807C49.5017 38.2807 49.2701 38.5123 49.2701 38.798V60.8324C49.2701 61.1181 49.5017 61.3497 49.7873 61.3497H53.5425C53.8282 61.3497 54.0597 61.1181 54.0597 60.8324V47.9772L59.1456 56.8382C59.2378 56.9989 59.409 57.098 59.5942 57.098H62.0459C62.2312 57.098 62.4023 56.9989 62.4945 56.8382L67.6115 47.9232V60.8324C67.6115 61.1181 67.843 61.3497 68.1287 61.3497H71.8839C72.1695 61.3497 72.4011 61.1181 72.4011 60.8324V38.798C72.4011 38.5123 72.1695 38.2807 71.8839 38.2807H68.1287C67.9402 38.2807 67.7665 38.3833 67.6756 38.5485L60.8356 50.9716L53.9956 38.5485C53.9047 38.3833 53.731 38.2807 53.5425 38.2807H49.7873ZM76.8198 38.3118C75.2307 38.3118 73.975 39.5985 73.975 41.1255C73.975 42.6791 75.2262 43.9704 76.8198 43.9704C78.4045 43.9704 79.6957 42.6881 79.6957 41.1255C79.6957 39.5896 78.3999 38.3118 76.8198 38.3118ZM97.7236 41.1255C97.7236 39.5985 98.9794 38.3118 100.568 38.3118C102.149 38.3118 103.444 39.5896 103.444 41.1255C103.444 42.6881 102.153 43.9704 100.568 43.9704C98.9749 43.9704 97.7236 42.6791 97.7236 41.1255ZM90.3652 44.9531C88.6501 44.9531 87.0307 45.5159 85.7617 46.5801V45.6876C85.7617 45.4019 85.5301 45.1704 85.2445 45.1704H81.7686C81.4829 45.1704 81.2514 45.4019 81.2514 45.6876V60.8324C81.2514 61.1181 81.4829 61.3497 81.7686 61.3497H85.2445C85.5301 61.3497 85.7617 61.1181 85.7617 60.8324V53.229C85.7617 51.8247 86.1272 50.8028 86.7051 50.1395C87.2758 49.4845 88.1025 49.1221 89.1548 49.1221C90.1145 49.1221 90.7609 49.3569 91.1868 49.8533C91.63 50.3698 91.9272 51.2738 91.9272 52.8255V60.8324C91.9272 61.1181 92.1588 61.3497 92.4445 61.3497H95.9203C96.206 61.3497 96.4376 61.1181 96.4376 60.8324V51.9255C96.4376 49.5669 95.86 47.8066 94.7662 46.6343C93.6671 45.4564 92.1227 44.9531 90.3652 44.9531ZM74.5646 45.6876C74.5646 45.4019 74.7962 45.1704 75.0819 45.1704H78.5578C78.8434 45.1704 79.075 45.4019 79.075 45.6876V60.8324C79.075 61.1181 78.8434 61.3497 78.5578 61.3497H75.0819C74.7962 61.3497 74.5646 61.1181 74.5646 60.8324V45.6876ZM98.8305 45.1704C98.5449 45.1704 98.3133 45.4019 98.3133 45.6876V60.8324C98.3133 61.1181 98.5449 61.3497 98.8305 61.3497H102.306C102.592 61.3497 102.824 61.1181 102.824 60.8324V45.6876C102.824 45.4019 102.592 45.1704 102.306 45.1704H98.8305ZM23.8044 56.8141C23.8044 56.5284 24.036 56.2969 24.3216 56.2969H34.9561C38.5731 56.2969 41.2371 57.3418 42.9941 59.1656C44.7472 60.9853 45.5285 63.5089 45.5285 66.3313C45.5285 69.6428 44.4045 72.1485 42.3988 73.8153C40.4081 75.4696 37.6163 76.2417 34.3768 76.2417H29.8458V86.1934C29.8458 86.4791 29.6142 86.7106 29.3285 86.7106H24.3216C24.036 86.7106 23.8044 86.4791 23.8044 86.1934V56.8141ZM29.8458 61.8003V70.6968H33.8802C35.8466 70.6968 37.1965 70.2005 38.0499 69.433C38.8962 68.6717 39.3216 67.5829 39.3216 66.2486C39.3216 64.8111 38.8654 63.7219 38.0494 62.9862C37.226 62.2437 35.9684 61.8003 34.2527 61.8003H29.8458ZM55.4023 65.1934C49.5401 65.1934 45.161 69.844 45.161 76.1796C45.161 79.4215 46.2471 82.1417 48.094 84.0544C49.9413 85.9675 52.5203 87.0417 55.4437 87.0417C57.907 87.0417 59.9206 86.2523 61.423 84.7859V86.1934C61.423 86.4791 61.6546 86.7106 61.9403 86.7106H66.3679C66.6535 86.7106 66.8851 86.4791 66.8851 86.1934V66.0003C66.8851 65.7146 66.6535 65.4831 66.3679 65.4831H61.7334C61.4477 65.4831 61.2161 65.7146 61.2161 66.0003V67.2672C59.6939 65.8927 57.6525 65.1934 55.4023 65.1934ZM50.9127 76.221C50.9127 74.3923 51.5138 72.9426 52.4561 71.9537C53.3984 70.9647 54.709 70.4072 56.1885 70.4072C59.1654 70.4072 61.423 72.8564 61.423 76.221C61.423 79.5863 59.0382 81.7865 56.1885 81.7865C54.6036 81.7865 53.2943 81.207 52.3796 80.2412C51.4627 79.273 50.9127 77.885 50.9127 76.221ZM68.3076 65.7165C68.4032 65.5708 68.5658 65.4831 68.7401 65.4831H73.7056C73.9155 65.4831 74.1046 65.6099 74.1842 65.8042L79.2765 78.2309L84.0224 65.8156C84.099 65.6153 84.2912 65.4831 84.5056 65.4831H89.2642C89.4351 65.4831 89.595 65.5675 89.6913 65.7086C89.7877 65.8497 89.8082 66.0293 89.746 66.1885L78.6563 94.5747C78.5788 94.7731 78.3876 94.9037 78.1745 94.9037H73.3745C73.2036 94.9037 73.0437 94.8193 72.9473 94.6781C72.851 94.537 72.8306 94.3573 72.8928 94.1981L76.4565 85.0864L68.2655 66.2062C68.1962 66.0463 68.212 65.8622 68.3076 65.7165Z" fill="white"/>
</g>
<defs>
<clipPath id="clip0_2_85">
<rect width="120" height="120" rx="24" fill="white"/>
</clipPath>
</defs>
</svg>
