<svg width="127" height="116" viewBox="0 0 127 116" fill="none" xmlns="http://www.w3.org/2000/svg">
<path d="M17.5117 115.273C13.9772 115.273 10.8994 114.479 8.27832 112.891C5.69694 111.342 3.69141 109.237 2.26172 106.576C0.832031 103.955 0.117188 101.056 0.117188 97.8789C0.117188 94.821 0.911458 91.902 2.5 89.1221L48.5479 8.82129C50.1761 5.9222 52.3206 3.73796 54.9814 2.26855C57.682 0.799154 60.5215 0.0644531 63.5 0.0644531C66.4388 0.0644531 69.2386 0.799154 71.8994 2.26855C74.5602 3.73796 76.7246 5.9222 78.3926 8.82129L124.44 89.1221C125.235 90.512 125.83 91.9616 126.228 93.4707C126.625 94.9401 126.823 96.4095 126.823 97.8789C126.823 101.056 126.108 103.955 124.679 106.576C123.249 109.237 121.224 111.342 118.603 112.891C116.021 114.479 112.963 115.273 109.429 115.273H17.5117ZM63.5596 73.6338C67.3721 73.6338 69.3577 71.6481 69.5166 67.6768L70.4697 39.5C70.5492 37.554 69.9137 35.9456 68.5635 34.6748C67.2529 33.3643 65.5651 32.709 63.5 32.709C61.3952 32.709 59.6875 33.3444 58.377 34.6152C57.0664 35.8861 56.4508 37.5143 56.5303 39.5L57.4238 67.6768C57.5827 71.6481 59.6279 73.6338 63.5596 73.6338ZM63.5596 94.6025C65.7041 94.6025 67.5309 93.9473 69.04 92.6367C70.5492 91.2865 71.3037 89.5589 71.3037 87.4541C71.3037 85.389 70.5492 83.6813 69.04 82.3311C67.5309 80.9808 65.7041 80.3057 63.5596 80.3057C61.3753 80.3057 59.5286 80.9808 58.0195 82.3311C56.5104 83.6813 55.7559 85.389 55.7559 87.4541C55.7559 89.5589 56.5104 91.2865 58.0195 92.6367C59.5684 93.9473 61.415 94.6025 63.5596 94.6025Z" fill="#F59E0B"/>
</svg>
